<svg xmlns="http://www.w3.org/2000/svg" width="400" height="400" viewBox="0 0 400 400">
  <!-- Production Placeholder - Generic Content Area -->
  <defs>
    <linearGradient id="placeholderGradient" x1="0%" y1="0%" x2="100%" y2="100%">
      <stop offset="0%" style="stop-color:#f0f0f0;stop-opacity:1" />
      <stop offset="100%" style="stop-color:#e0e0e0;stop-opacity:1" />
    </linearGradient>
  </defs>
  
  <!-- Background -->
  <rect width="400" height="400" fill="url(#placeholderGradient)"/>
  
  <!-- Accent corner lines -->
  <g stroke="#00d9ff" stroke-width="2" opacity="0.3">
    <line x1="20" y1="20" x2="80" y2="20"/>
    <line x1="20" y1="20" x2="20" y2="80"/>
    
    <line x1="320" y1="20" x2="380" y2="20"/>
    <line x1="380" y1="20" x2="380" y2="80"/>
    
    <line x1="20" y1="320" x2="20" y2="380"/>
    <line x1="20" y1="380" x2="80" y2="380"/>
    
    <line x1="380" y1="320" x2="380" y2="380"/>
    <line x1="320" y1="380" x2="380" y2="380"/>
  </g>
  
  <!-- Center content area -->
  <rect x="50" y="50" width="300" height="300" fill="none" stroke="#999999" stroke-width="1" stroke-dasharray="5,5" opacity="0.5"/>
  
  <!-- Content placeholder text -->
  <text x="200" y="190" font-family="Arial, sans-serif" font-size="24" fill="#666666" text-anchor="middle" dominant-baseline="middle">
    Content Area
  </text>
  
  <!-- Production badge -->
  <circle cx="350" cy="50" r="20" fill="#00d9ff" opacity="0.8"/>
  <text x="350" y="55" font-family="Arial, sans-serif" font-size="12" font-weight="bold" fill="#ffffff" text-anchor="middle" dominant-baseline="middle">
    PRD
  </text>
</svg>
<g opacity=".5"><g opacity=".5"><path fill="#FAFAFA" d="M600.709 736.5c-75.454 0-136.621-61.167-136.621-136.62 0-75.454 61.167-136.621 136.621-136.621 75.453 0 136.62 61.167 136.62 136.621 0 75.453-61.167 136.62-136.62 136.62Z"/><path stroke="#C9C9C9" stroke-width="2.418" d="M600.709 736.5c-75.454 0-136.621-61.167-136.621-136.62 0-75.454 61.167-136.621 136.621-136.621 75.453 0 136.62 61.167 136.62 136.621 0 75.453-61.167 136.62-136.62 136.62Z"/></g><path stroke="url(#a)" stroke-width="2.418" d="M0-1.209h553.581" transform="scale(1 -1) rotate(45 1163.11 91.165)"/><path stroke="url(#b)" stroke-width="2.418" d="M404.846 598.671h391.726"/><path stroke="url(#c)" stroke-width="2.418" d="M599.5 795.742V404.017"/><path stroke="url(#d)" stroke-width="2.418" d="m795.717 796.597-391.441-391.44"/><path fill="#fff" d="M600.709 656.704c-31.384 0-56.825-25.441-56.825-56.824 0-31.384 25.441-56.825 56.825-56.825 31.383 0 56.824 25.441 56.824 56.825 0 31.383-25.441 56.824-56.824 56.824Z"/><g clip-path="url(#e)"><path fill="#666" fill-rule="evenodd" d="M616.426 586.58h-31.434v16.176l3.553-3.554.531-.531h9.068l.074-.074 8.463-8.463h2.565l7.18 7.181V586.58Zm-15.715 14.654 3.698 3.699 1.283 1.282-2.565 2.565-1.282-1.283-5.2-5.199h-6.066l-5.514 5.514-.073.073v2.876a2.418 2.418 0 0 0 2.418 2.418h26.598a2.418 2.418 0 0 0 2.418-2.418v-8.317l-8.463-8.463-7.181 7.181-.071.072Zm-19.347 5.442v4.085a6.045 6.045 0 0 0 6.046 6.045h26.598a6.044 6.044 0 0 0 6.045-6.045v-7.108l1.356-1.355-1.282-1.283-.074-.073v-17.989h-38.689v23.43l-.146.146.146.147Z" clip-rule="evenodd"/></g><path stroke="#C9C9C9" stroke-width="2.418" d="M600.709 656.704c-31.384 0-56.825-25.441-56.825-56.824 0-31.384 25.441-56.825 56.825-56.825 31.383 0 56.824 25.441 56.824 56.825 0 31.383-25.441 56.824-56.824 56.824Z"/></g><defs><linearGradient id="a" x1="554.061" x2="-.48" y1=".083" y2=".087" gradientUnits="userSpaceOnUse"><stop stop-color="#C9C9C9" stop-opacity="0"/><stop offset=".208" stop-color="#C9C9C9"/><stop offset=".792" stop-color="#C9C9C9"/><stop offset="1" stop-color="#C9C9C9" stop-opacity="0"/></linearGradient><linearGradient id="b" x1="796.912" x2="404.507" y1="599.963" y2="599.965" gradientUnits="userSpaceOnUse"><stop stop-color="#C9C9C9" stop-opacity="0"/><stop offset=".208" stop-color="#C9C9C9"/><stop offset=".792" stop-color="#C9C9C9"/><stop offset="1" stop-color="#C9C9C9" stop-opacity="0"/></linearGradient><linearGradient id="c" x1="600.792" x2="600.794" y1="403.677" y2="796.082" gradientUnits="userSpaceOnUse"><stop stop-color="#C9C9C9" stop-opacity="0"/><stop offset=".208" stop-color="#C9C9C9"/><stop offset=".792" stop-color="#C9C9C9"/><stop offset="1" stop-color="#C9C9C9" stop-opacity="0"/></linearGradient><linearGradient id="d" x1="404.85" x2="796.972" y1="403.903" y2="796.02" gradientUnits="userSpaceOnUse"><stop stop-color="#C9C9C9" stop-opacity="0"/><stop offset=".208" stop-color="#C9C9C9"/><stop offset=".792" stop-color="#C9C9C9"/><stop offset="1" stop-color="#C9C9C9" stop-opacity="0"/></linearGradient><clipPath id="e"><path fill="#fff" d="M581.364 580.535h38.689v38.689h-38.689z"/></clipPath></defs></svg>