<!-- AUTODEV Enhanced: 2026-04-20T09:01:23.001002 -->
<!-- AUTODEV Enhanced: 2026-04-20T08:55:15.835691 -->

<svg xmlns="http://www.w3.org/2000/svg" width="512" height="512" viewBox="0 0 256 256">
  <defs>
    <linearGradient id="storeGradient" x1="0%" y1="0%" x2="100%" y2="100%">
      <stop offset="0%" style="stop-color:#ea580c;stop-opacity:1" />
      <stop offset="50%" style="stop-color:#f97316;stop-opacity:1" />
      <stop offset="100%" style="stop-color:#fb923c;stop-opacity:1" />
    </linearGradient>
  </defs>

  <!-- Background -->
  <rect width="512" height="512" fill="url(#storeGradient)" rx="32"/>

  <!-- Store shelf -->
  <rect x="40" y="160" width="176" height="8" fill="#ffffff" opacity="0.8"/>
  <rect x="40" y="140" width="176" height="8" fill="#ffffff" opacity="0.6"/>
  <rect x="40" y="120" width="176" height="8" fill="#ffffff" opacity="0.4"/>

  <!-- App icons on shelf -->
  <rect x="50" y="100" width="20" height="20" fill="#ffffff" opacity="0.9" rx="4"/>
  <circle cx="60" cy="110" r="4" fill="#ea580c"/>

  <rect x="80" y="100" width="20" height="20" fill="#ffffff" opacity="0.9" rx="4"/>
  <path d="M85 105l5 5-5 5M95 105l-5 5 5 5" stroke="#ea580c" stroke-width="2" fill="none"/>

  <rect x="110" y="100" width="20" height="20" fill="#ffffff" opacity="0.9" rx="4"/>
  <circle cx="120" cy="110" r="3" fill="#ea580c"/>
  <circle cx="116" cy="106" r="1" fill="#ffffff"/>
  <circle cx="124" cy="106" r="1" fill="#ffffff"/>

  <rect x="140" y="100" width="20" height="20" fill="#ffffff" opacity="0.9" rx="4"/>
  <rect x="145" y="105" width="10" height="2" fill="#ea580c"/>
  <rect x="145" y="108" width="8" height="2" fill="#ea580c"/>
  <rect x="145" y="111" width="6" height="2" fill="#ea580c"/>

  <rect x="170" y="100" width="20" height="20" fill="#ffffff" opacity="0.9" rx="4"/>
  <circle cx="180" cy="110" r="4" fill="none" stroke="#ea580c" stroke-width="2"/>
  <path d="M176 106l4 4M184 106l-4 4" stroke="#ea580c" stroke-width="1.5"/>

  <!-- Shopping cart -->
  <g transform="translate(200, 180)">
    <rect x="0" y="8" width="16" height="12" fill="#ffffff" opacity="0.9" rx="2"/>
    <circle cx="4" cy="20" r="2" fill="#ea580c"/>
    <circle cx="12" cy="20" r="2" fill="#ea580c"/>
    <line x1="0" y1="12" x2="-3" y2="16" stroke="#ea580c" stroke-width="2"/>
    <line x1="16" y1="12" x2="19" y2="16" stroke="#ea580c" stroke-width="2"/>
  </g>

  <!-- Download arrow -->
  <g transform="translate(120, 40)">
    <circle cx="16" cy="16" r="14" fill="#ffffff" opacity="0.9"/>
    <path d="M12 14l4 4 4-4M16 18v-8" stroke="#ea580c" stroke-width="2" fill="none"/>
  </g>
</svg>
