<!-- AUTODEV Enhanced: 2026-04-20T09:01:23.022337 -->
<!-- AUTODEV Enhanced: 2026-04-20T08:55:15.943345 -->

<svg xmlns="http://www.w3.org/2000/svg" width="256" height="256" viewBox="0 0 256 256">
  <defs>
    <linearGradient id="yapGradient" x1="0%" y1="0%" x2="100%" y2="100%">
      <stop offset="0%" style="stop-color:#dc2626;stop-opacity:1" />
      <stop offset="50%" style="stop-color:#ef4444;stop-opacity:1" />
      <stop offset="100%" style="stop-color:#f87171;stop-opacity:1" />
    </linearGradient>
  </defs>

  <!-- Background -->
  <rect width="256" height="256" fill="url(#yapGradient)" rx="32"/>

  <!-- Chat bubbles -->
  <g transform="translate(60, 70)">
    <ellipse cx="30" cy="20" rx="25" ry="15" fill="#ffffff" opacity="0.9"/>
    <circle cx="20" cy="18" r="2" fill="#dc2626"/>
    <circle cx="26" cy="18" r="2" fill="#dc2626"/>
    <circle cx="32" cy="18" r="2" fill="#dc2626"/>
  </g>

  <g transform="translate(120, 90)">
    <ellipse cx="30" cy="20" rx="25" ry="15" fill="#ffffff" opacity="0.9"/>
    <circle cx="20" cy="18" r="2" fill="#dc2626"/>
    <circle cx="26" cy="18" r="2" fill="#dc2626"/>
    <circle cx="32" cy="18" r="2" fill="#dc2626"/>
  </g>

  <!-- Video call icon -->
  <g transform="translate(160, 60)">
    <rect x="5" y="10" width="30" height="20" fill="#ffffff" opacity="0.9" rx="3"/>
    <circle cx="20" cy="15" r="4" fill="#dc2626"/>
    <rect x="18" y="13" width="4" height="4" fill="#ffffff" rx="2"/>
  </g>

  <!-- Voice wave -->
  <g transform="translate(70, 120)">
    <rect x="0" y="8" width="3" height="8" fill="#ffffff" opacity="0.8"/>
    <rect x="5" y="5" width="3" height="14" fill="#ffffff" opacity="0.9"/>
    <rect x="10" y="2" width="3" height="20" fill="#ffffff" opacity="1"/>
    <rect x="15" y="5" width="3" height="14" fill="#ffffff" opacity="0.9"/>
    <rect x="20" y="8" width="3" height="8" fill="#ffffff" opacity="0.8"/>
  </g>

  <!-- Phone icon -->
  <g transform="translate(180, 140)">
    <rect x="5" y="5" width="20" height="30" fill="#ffffff" opacity="0.9" rx="8"/>
    <circle cx="15" cy="25" r="8" fill="none" stroke="#dc2626" stroke-width="2"/>
    <circle cx="15" cy="25" r="2" fill="#dc2626"/>
  </g>
</svg>
